<svg width="500" height="134" viewBox="0 0 500 134" fill="none" xmlns="http://www.w3.org/2000/svg">
<g clip-path="url(#clip0_91_1142)">
<rect width="500" height="134" rx="16" fill="url(#paint0_linear_91_1142)"/>
<g style="mix-blend-mode:color-dodge">
<rect width="10" height="10" transform="translate(111 50)" fill="black"/>
<circle cx="116" cy="55" r="5" fill="url(#paint1_radial_91_1142)"/>
</g>
<g style="mix-blend-mode:color-dodge">
<rect width="10" height="10" transform="translate(293 15)" fill="black"/>
<circle cx="298" cy="20" r="5" fill="url(#paint2_radial_91_1142)"/>
</g>
<g style="mix-blend-mode:color-dodge">
<rect width="10" height="10" transform="translate(247 94)" fill="black"/>
<circle cx="252" cy="99" r="5" fill="url(#paint3_radial_91_1142)"/>
</g>
<g style="mix-blend-mode:color-dodge">
<rect width="10" height="10" transform="translate(496 70)" fill="black"/>
<circle cx="501" cy="75" r="5" fill="url(#paint4_radial_91_1142)"/>
</g>
<g style="mix-blend-mode:color-dodge">
<rect width="10" height="10" transform="translate(433 20)" fill="black"/>
<circle cx="438" cy="25" r="5" fill="url(#paint5_radial_91_1142)"/>
</g>
<g style="mix-blend-mode:color-dodge">
<rect width="10" height="10" transform="translate(200 -9)" fill="black"/>
<circle cx="205" cy="-4" r="5" fill="url(#paint6_radial_91_1142)"/>
</g>
<g style="mix-blend-mode:color-dodge">
<rect width="10" height="10" transform="translate(82 132)" fill="black"/>
<circle cx="87" cy="137" r="5" fill="url(#paint7_radial_91_1142)"/>
</g>
<g style="mix-blend-mode:color-dodge">
<rect width="10" height="10" transform="translate(160 89)" fill="black"/>
<circle cx="165" cy="94" r="5" fill="url(#paint8_radial_91_1142)"/>
</g>
<g style="mix-blend-mode:color-dodge">
<rect width="10" height="10" transform="translate(481 58)" fill="black"/>
<circle cx="486" cy="63" r="5" fill="url(#paint9_radial_91_1142)"/>
</g>
<g style="mix-blend-mode:color-dodge">
<rect width="10" height="10" transform="translate(380 25)" fill="black"/>
<circle cx="385" cy="30" r="5" fill="url(#paint10_radial_91_1142)"/>
</g>
<g style="mix-blend-mode:color-dodge">
<rect width="10" height="10" transform="translate(456 -7)" fill="black"/>
<circle cx="461" cy="-2" r="5" fill="url(#paint11_radial_91_1142)"/>
</g>
<g style="mix-blend-mode:color-dodge">
<rect width="10" height="10" transform="translate(169 37)" fill="black"/>
<circle cx="174" cy="42" r="5" fill="url(#paint12_radial_91_1142)"/>
</g>
<g style="mix-blend-mode:color-dodge">
<rect width="10" height="10" transform="translate(242 29)" fill="black"/>
<circle cx="247" cy="34" r="5" fill="url(#paint13_radial_91_1142)"/>
</g>
<ellipse opacity="0.5" cx="533.432" cy="632.847" rx="533.432" ry="632.847" transform="matrix(0.866435 0.499291 -0.50071 0.865615 901.378 -861.05)" fill="url(#paint14_radial_91_1142)"/>
<g style="mix-blend-mode:color-dodge">
<rect width="13.225" height="13.2" transform="translate(451.13 127.3)" fill="black"/>
<ellipse cx="457.743" cy="133.9" rx="6.6125" ry="6.6" fill="url(#paint15_radial_91_1142)"/>
</g>
<g style="mix-blend-mode:color-dodge">
<rect width="13.225" height="13.2" transform="translate(58.7886 38.2)" fill="black"/>
<ellipse cx="65.4011" cy="44.7999" rx="6.6125" ry="6.6" fill="url(#paint16_radial_91_1142)"/>
</g>
<g style="mix-blend-mode:hard-light" opacity="0.08">
<ellipse cx="82.4833" cy="626.15" rx="824.358" ry="561.55" fill="url(#paint17_radial_91_1142)"/>
</g>
<path d="M223.719 30.032C223.743 29.6 224.367 29.792 224.319 30.104C224.103 32.552 223.215 43.04 221.415 48.704C220.959 50.072 220.191 52.472 218.439 52.472C215.511 52.496 214.455 47.312 214.119 41.984C213.519 45.656 212.343 49.808 209.751 49.808C204.759 49.808 205.119 34.88 205.719 30.44C205.839 29.504 208.071 29.432 207.927 30.464C207.447 34.256 206.967 49.064 210.159 48.968C212.727 48.896 213.663 41.192 213.999 38.072C213.975 35.576 214.047 33.344 214.095 32.024C214.143 30.992 216.351 31.016 216.327 32.048C216.183 36.056 215.703 51.704 218.655 51.704C219.759 51.68 220.455 49.448 220.719 48.608C222.447 43.184 223.479 32.432 223.719 30.032ZM232.386 42.488L233.01 42.68C232.386 44.864 230.394 49.472 227.706 49.472C223.53 49.472 223.218 40.112 227.946 40.112C230.778 40.112 230.322 44.576 226.698 45.032C226.602 46.904 226.962 48.68 227.898 48.656C229.962 48.656 231.906 44.216 232.386 42.488ZM228.306 41C227.466 41 226.914 42.584 226.722 44.408C229.53 43.928 229.65 41.024 228.306 41ZM235.11 49.136C236.598 49.136 237.894 43.712 238.23 42.512L238.83 42.68C238.326 44.432 237.078 50 234.75 50C229.878 50.024 231.102 27.344 237.15 27.392C238.422 27.392 239.526 28.472 239.598 30.416C239.718 33.752 236.55 37.376 234.054 40.064C233.67 44.792 233.886 49.136 235.11 49.136ZM237.438 28.28C235.062 28.304 234.294 37.376 234.15 39.032C236.43 36.536 239.07 33.296 238.974 30.44C238.926 29.144 238.206 28.28 237.438 28.28ZM245.254 42.488L245.854 42.68C245.254 44.864 243.262 49.472 240.574 49.472C236.398 49.472 236.158 40.016 240.814 40.112C242.302 40.136 242.95 41.456 242.47 42.824C242.326 43.208 241.702 43.184 241.894 42.68C242.11 42.08 241.966 40.904 241.174 40.904C239.374 40.904 238.822 48.68 240.766 48.656C242.83 48.656 244.774 44.216 245.254 42.488ZM253.066 42.56L253.666 42.728C253.258 44.072 252.154 44.912 250.906 45.344C250.714 47.216 249.562 48.968 247.522 49.04C244.45 49.184 243.682 45.2 244.642 42.92C244.354 41.408 245.17 39.824 246.994 39.8C249.514 39.776 250.906 42.248 250.93 44.648C251.914 44.264 252.754 43.568 253.066 42.56ZM246.37 44.48C246.946 44.864 247.714 45.128 248.77 45.104C248.722 42.992 247.93 40.664 246.442 40.64C245.746 40.64 245.314 41.24 245.242 41.984C245.698 41.456 246.346 41.168 247.138 41.288C247.498 41.336 247.522 41.792 247.186 42.032C246.754 42.392 246.49 43.376 246.37 44.48ZM247.45 48.44C248.434 48.44 248.722 46.496 248.746 45.728C247.762 45.752 246.97 45.536 246.346 45.2C246.322 45.968 246.394 48.44 247.45 48.44ZM268.131 42.512L268.731 42.68C268.395 43.88 267.723 46.88 266.643 48.632C266.235 49.328 265.587 50.12 264.699 50.12C260.883 50.168 263.691 40.136 262.419 40.184C261.339 40.208 260.427 43.832 259.923 46.304C259.491 48.464 257.595 48.032 257.667 46.328C257.787 43.856 258.171 38.768 257.427 38.768C256.131 38.744 255.075 45.608 254.667 48.176C254.427 49.616 252.339 49.376 252.363 48.152C252.387 46.4 252.459 42.704 252.531 40.832C252.555 39.776 254.763 39.584 254.739 41.024L254.667 44.336C255.267 41.168 256.299 37.616 258.027 37.616C259.659 37.592 259.971 40.64 259.923 43.4C260.547 41.264 261.435 39.272 262.707 39.272C266.595 39.272 263.715 49.4 265.011 49.376C265.467 49.376 265.947 48.656 266.163 48.296C267.147 46.64 267.843 43.544 268.131 42.512ZM275.173 42.488L275.797 42.68C275.173 44.864 273.181 49.472 270.493 49.472C266.317 49.472 266.005 40.112 270.733 40.112C273.565 40.112 273.109 44.576 269.485 45.032C269.389 46.904 269.749 48.68 270.685 48.656C272.749 48.656 274.693 44.216 275.173 42.488ZM271.093 41C270.253 41 269.701 42.584 269.509 44.408C272.317 43.928 272.437 41.024 271.093 41ZM285.909 42.44L286.509 42.608C286.029 44.312 284.829 50.36 282.453 50.36C278.349 50.36 279.141 40.616 279.693 35.672C277.965 35.192 276.453 34.904 275.925 35.96C275.781 36.272 275.181 36.104 275.349 35.72C276.021 34.232 277.845 34.496 279.765 35.024L279.885 33.92C280.005 32.888 282.237 32.936 282.093 34.232C282.069 34.592 282.021 35.072 281.949 35.624C283.437 36.008 284.733 36.176 285.237 35.336C285.453 34.976 286.005 35.24 285.813 35.6C285.141 36.824 283.581 36.68 281.901 36.272C281.445 40.904 280.797 49.472 282.693 49.472C284.205 49.472 285.549 43.64 285.909 42.44ZM293.744 42.56L294.344 42.728C293.936 44.072 292.832 44.912 291.584 45.344C291.392 47.216 290.24 48.968 288.2 49.04C285.128 49.184 284.36 45.2 285.32 42.92C285.032 41.408 285.848 39.824 287.672 39.8C290.192 39.776 291.584 42.248 291.608 44.648C292.592 44.264 293.432 43.568 293.744 42.56ZM287.048 44.48C287.624 44.864 288.392 45.128 289.448 45.104C289.4 42.992 288.608 40.664 287.12 40.64C286.424 40.64 285.992 41.24 285.92 41.984C286.376 41.456 287.024 41.168 287.816 41.288C288.176 41.336 288.2 41.792 287.864 42.032C287.432 42.392 287.168 43.376 287.048 44.48ZM288.128 48.44C289.112 48.44 289.4 46.496 289.424 45.728C288.44 45.752 287.648 45.536 287.024 45.2C287 45.968 287.072 48.44 288.128 48.44Z" fill="white"/>
<g clip-path="url(#clip1_91_1142)">
<path d="M215.588 106.059C213.176 103.339 211.169 101.079 209.619 99.342C206.04 95.3269 204.134 93.1869 203.956 92.981C203.316 92.2445 202.64 91.4832 201.946 90.719C201.94 90.7122 201.94 90.7025 201.946 90.6973C203.586 89.1231 205.254 87.5444 206.901 86.004C207.089 85.8296 207.259 85.6582 207.423 85.492C207.603 85.3116 207.772 85.1409 207.938 84.9935C208.528 84.4657 209.039 83.9717 209.685 83.3459C210.003 83.0383 210.354 82.6992 210.763 82.3077C211.238 81.8541 211.71 81.393 212.166 80.9469C212.419 80.6999 212.672 80.4521 212.931 80.2014C213.082 80.0921 213.192 79.9573 213.258 79.7994C213.272 79.7657 213.277 79.729 213.275 79.6931C213.248 79.3802 213.065 79.2141 212.743 79.2118C210.3 79.1946 206.753 79.1901 202.201 79.1983C201.967 79.1991 201.757 79.3188 201.575 79.5546C201.574 79.5554 201.574 79.5561 201.573 79.5569C201.205 79.9012 200.84 80.262 200.489 80.628C199.41 81.7501 198.405 82.7988 197.5 83.7457C197.418 83.831 197.345 83.9073 197.279 83.9747C196.654 84.6184 196.098 85.1851 195.627 85.6596C195.401 85.8857 195.207 86.0975 195.001 86.3221C194.814 86.5257 194.621 86.736 194.399 86.9636C193.961 87.409 193.51 87.8955 192.988 88.4592C192.802 88.6598 192.608 88.8686 192.405 89.0864L188.649 93.3598L192.077 99.5726C193.78 97.821 195.267 96.2776 196.496 94.9856C196.496 94.9856 196.498 94.9841 196.504 94.9841L200.843 100.144C202.688 102.343 204.565 104.565 206.422 106.748C206.507 106.848 206.601 106.898 206.703 106.898C209.42 106.895 212.227 106.895 215.048 106.896C215.297 106.896 215.715 106.896 215.733 106.433C215.739 106.3 215.69 106.174 215.588 106.059Z" fill="white"/>
<path d="M192.077 99.5727C190.872 100.811 189.634 101.984 188.398 103.058C187.249 104.056 185.963 104.904 184.578 105.582C183.061 106.322 181.44 106.81 179.761 107.032C179.171 107.112 178.573 107.156 177.972 107.162V101.466C179.618 101.378 181.054 100.888 182.342 99.9791C182.969 99.536 183.358 99.1947 184.037 98.5719C184.285 98.3458 184.525 98.1055 184.752 97.8585C185.671 96.8607 186.272 96.1923 186.538 95.8727C187.349 94.8996 188.059 94.0538 188.649 93.3599L192.077 99.5727Z" fill="white"/>
<path d="M177.972 101.466V107.162C177.917 107.163 177.862 107.163 177.807 107.163C177.434 107.163 177.061 107.149 176.687 107.121C174.351 106.924 172.17 106.178 170.205 104.904C168.586 103.853 167.243 102.486 166.214 100.84C165.862 100.279 165.534 99.6348 165.238 98.9274C164.327 96.7484 163.916 94.4452 164.014 92.0813C164.046 91.3283 164.161 90.5439 164.355 89.7482C165.125 86.6006 166.795 84.0197 169.318 82.0757C170.578 81.1056 172.036 80.3414 173.653 79.8047C174.525 79.515 175.532 79.3167 176.648 79.2156C176.839 79.1991 177.244 79.1917 177.855 79.1917V84.769C177.136 84.7577 176.455 84.8191 175.827 84.9523C174.234 85.2907 172.841 86.0968 171.687 87.3484C170.528 88.6059 169.839 90.1075 169.638 91.8126C169.562 92.4609 169.535 93.014 169.556 93.4564C169.589 94.1638 169.718 94.9452 169.938 95.7798C169.938 95.7806 169.938 95.7821 169.938 95.7828C170.509 97.6227 171.575 99.0988 173.108 100.169C174.288 100.992 175.659 101.432 177.184 101.477H177.185C177.453 101.483 177.715 101.479 177.972 101.466Z" fill="white"/>
<path d="M188.649 93.3598C188.658 93.3509 188.658 93.3366 188.65 93.3262L188.32 92.8838C186.899 90.9765 185.556 89.1741 183.953 87.5176C183.797 87.3559 183.61 87.1785 183.397 86.9906L182.821 86.4823L182.817 86.4793C181.719 85.6425 180.474 85.1095 179.115 84.8955C178.843 84.852 178.562 84.8146 178.282 84.7847C178.138 84.7764 177.996 84.7712 177.855 84.769V79.1917C178.321 79.1924 178.727 79.2096 179.061 79.2426C180.209 79.3578 181.342 79.628 182.429 80.0465L182.402 80.1161L182.43 80.0465C184.07 80.7007 185.548 81.6161 186.946 82.8452L186.903 82.8946L186.948 82.8467C187.797 83.6506 188.424 84.2719 188.814 84.6926C190.083 86.0647 191.292 87.543 192.405 89.0865L188.649 93.3598Z" fill="url(#paint18_linear_91_1142)"/>
<path d="M230.513 101.763C229.295 101.763 228.158 101.54 227.093 101.107C226.027 100.674 225.09 100.065 224.27 99.2806C223.45 98.4961 222.818 97.5594 222.361 96.4939C221.904 95.4167 221.682 94.2458 221.682 92.9695C221.682 91.6933 221.904 90.499 222.361 89.4335C222.806 88.368 223.45 87.443 224.27 86.6585C225.09 85.874 226.027 85.2652 227.093 84.832C228.158 84.3987 229.295 84.1763 230.513 84.1763C231.731 84.1763 232.89 84.3987 233.956 84.832C235.022 85.2652 235.959 85.874 236.767 86.6585C237.575 87.443 238.208 88.368 238.664 89.4335C239.109 90.499 239.344 91.6816 239.344 92.9695C239.344 94.2575 239.121 95.4284 238.664 96.4939C238.208 97.5711 237.587 98.4961 236.767 99.2806C235.947 100.065 235.022 100.674 233.956 101.107C232.89 101.54 231.742 101.763 230.513 101.763ZM230.513 97.9692C231.45 97.9692 232.258 97.7584 232.949 97.3369C233.64 96.9154 234.179 96.3299 234.565 95.5806C234.952 94.8312 235.139 93.9531 235.139 92.9461C235.139 91.9392 234.952 91.0259 234.565 90.2765C234.179 89.5272 233.64 88.9534 232.949 88.5436C232.258 88.1338 231.45 87.9348 230.513 87.9348C229.576 87.9348 228.767 88.1338 228.076 88.5436C227.385 88.9534 226.858 89.5272 226.484 90.2765C226.109 91.0259 225.921 91.9158 225.921 92.9461C225.921 93.9765 226.109 94.8195 226.484 95.5806C226.858 96.3299 227.397 96.9154 228.076 97.3369C228.756 97.7584 229.576 97.9692 230.513 97.9692Z" fill="white"/>
<path d="M241.71 101.587V84.3284H245.867V91.1077C247.027 91.1077 248.034 90.8384 248.889 90.2881C249.744 89.7378 250.424 88.965 250.915 87.9581C251.419 86.9511 251.7 85.7451 251.794 84.3284H256.268C256.186 85.3236 255.987 86.2837 255.671 87.197C255.354 88.1103 254.933 88.9299 254.406 89.6793C253.879 90.4286 253.27 91.0726 252.59 91.6112C251.911 92.1498 251.173 92.5596 250.4 92.8406C251.513 93.0982 252.52 93.6368 253.422 94.4213C254.324 95.2175 255.073 96.2127 255.659 97.4187C256.245 98.6247 256.631 100.018 256.819 101.587H252.344C252.262 100.077 251.946 98.8004 251.384 97.77C250.822 96.7279 250.084 95.9317 249.147 95.3697C248.21 94.8077 247.121 94.5384 245.879 94.5384V101.599H241.721L241.71 101.587Z" fill="white"/>
<path d="M268.636 84.3284L274.856 101.587H270.475L265.404 86.5179H267.032L261.937 101.587H257.58L263.823 84.3284H268.613H268.636ZM261.304 95.3229H270.744L271.799 98.5428H260.262L261.293 95.3229H261.304Z" fill="white"/>
<path d="M273.509 84.3284H278.205L282.386 93.3558H280.758L284.916 84.3284H289.566L283.616 95.8615V101.587H279.458V95.8615L273.509 84.3284Z" fill="white"/>
<path d="M301.829 87.6771H295.434V91.2131H301.091V94.433H295.434V98.2384H301.829V101.587H291.276V84.3284H301.829V87.6771Z" fill="white"/>
<path d="M311.035 101.763C309.805 101.763 308.704 101.552 307.744 101.131C306.772 100.709 305.987 100.124 305.354 99.3625C304.734 98.6014 304.312 97.7116 304.101 96.6929L308.154 95.7796C308.329 96.5875 308.657 97.2198 309.137 97.6764C309.618 98.1331 310.192 98.3672 310.859 98.3672C311.527 98.3672 312.112 98.215 312.499 97.9223C312.885 97.6296 313.073 97.2315 313.073 96.7397C313.073 96.2948 312.921 95.9318 312.604 95.6391C312.288 95.3581 311.878 95.1122 311.375 94.9132C310.871 94.7141 310.309 94.5151 309.688 94.3277C309.067 94.1287 308.458 93.9062 307.837 93.6603C307.228 93.4144 306.654 93.11 306.139 92.7353C305.624 92.3724 305.214 91.904 304.898 91.342C304.581 90.78 304.429 90.1009 304.429 89.2813C304.429 88.2041 304.687 87.2791 305.214 86.5063C305.741 85.7335 306.467 85.1481 307.416 84.75C308.353 84.3519 309.454 84.1528 310.695 84.1528C311.831 84.1528 312.839 84.3402 313.717 84.7149C314.607 85.0895 315.322 85.6164 315.884 86.2721C316.446 86.9395 316.797 87.724 316.961 88.6256L312.932 89.6794C312.803 88.9768 312.534 88.4382 312.124 88.0636C311.714 87.6889 311.211 87.5132 310.602 87.5132C310.238 87.5132 309.911 87.5718 309.618 87.7006C309.325 87.8294 309.091 88.005 308.915 88.2275C308.739 88.4617 308.657 88.7427 308.657 89.0822C308.657 89.5037 308.81 89.8667 309.126 90.136C309.442 90.417 309.852 90.6512 310.379 90.8619C310.906 91.0727 311.48 91.26 312.101 91.4474C312.721 91.6347 313.342 91.8572 313.951 92.1031C314.56 92.349 315.134 92.6534 315.65 93.0281C316.165 93.391 316.587 93.8594 316.903 94.4097C317.219 94.96 317.383 95.6391 317.383 96.4587C317.383 97.4305 317.114 98.3087 316.563 99.1049C316.013 99.9011 315.263 100.545 314.314 101.025C313.366 101.505 312.265 101.751 311.023 101.751L311.035 101.763Z" fill="white"/>
<path d="M319.983 84.3284H324.141V101.587H319.983V84.3284ZM323.649 91.1194H331.344V94.4681H323.649V91.1194ZM330.723 84.3284H334.881V101.587H330.723V84.3284Z" fill="white"/>
</g>
</g>
<defs>
<linearGradient id="paint0_linear_91_1142" x1="268.75" y1="-224.264" x2="268.75" y2="220.542" gradientUnits="userSpaceOnUse">
<stop stop-color="#0052FF"/>
<stop offset="1" stop-color="#003199"/>
</linearGradient>
<radialGradient id="paint1_radial_91_1142" cx="0" cy="0" r="1" gradientUnits="userSpaceOnUse" gradientTransform="translate(116 55) rotate(90) scale(5)">
<stop offset="0.145833" stop-color="white"/>
<stop offset="1" stop-color="#FF5E5E" stop-opacity="0"/>
</radialGradient>
<radialGradient id="paint2_radial_91_1142" cx="0" cy="0" r="1" gradientUnits="userSpaceOnUse" gradientTransform="translate(298 20) rotate(90) scale(5)">
<stop offset="0.145833" stop-color="white"/>
<stop offset="1" stop-color="#FF5E5E" stop-opacity="0"/>
</radialGradient>
<radialGradient id="paint3_radial_91_1142" cx="0" cy="0" r="1" gradientUnits="userSpaceOnUse" gradientTransform="translate(252 99) rotate(90) scale(5)">
<stop offset="0.015625" stop-color="white"/>
<stop offset="1" stop-color="#FF5E5E" stop-opacity="0"/>
</radialGradient>
<radialGradient id="paint4_radial_91_1142" cx="0" cy="0" r="1" gradientUnits="userSpaceOnUse" gradientTransform="translate(501 75) rotate(90) scale(5)">
<stop offset="0.015625" stop-color="white"/>
<stop offset="1" stop-color="#FF5E5E" stop-opacity="0"/>
</radialGradient>
<radialGradient id="paint5_radial_91_1142" cx="0" cy="0" r="1" gradientUnits="userSpaceOnUse" gradientTransform="translate(438 25) rotate(90) scale(5)">
<stop offset="0.015625" stop-color="white"/>
<stop offset="1" stop-color="#FF5E5E" stop-opacity="0"/>
</radialGradient>
<radialGradient id="paint6_radial_91_1142" cx="0" cy="0" r="1" gradientUnits="userSpaceOnUse" gradientTransform="translate(205 -4) rotate(90) scale(5)">
<stop offset="0.015625" stop-color="white"/>
<stop offset="1" stop-color="#FF5E5E" stop-opacity="0"/>
</radialGradient>
<radialGradient id="paint7_radial_91_1142" cx="0" cy="0" r="1" gradientUnits="userSpaceOnUse" gradientTransform="translate(87 137) rotate(90) scale(5)">
<stop offset="0.145833" stop-color="white"/>
<stop offset="1" stop-color="#FF5E5E" stop-opacity="0"/>
</radialGradient>
<radialGradient id="paint8_radial_91_1142" cx="0" cy="0" r="1" gradientUnits="userSpaceOnUse" gradientTransform="translate(165 94) rotate(90) scale(5)">
<stop offset="0.015625" stop-color="white"/>
<stop offset="1" stop-color="#FF5E5E" stop-opacity="0"/>
</radialGradient>
<radialGradient id="paint9_radial_91_1142" cx="0" cy="0" r="1" gradientUnits="userSpaceOnUse" gradientTransform="translate(486 63) rotate(90) scale(5)">
<stop offset="0.015625" stop-color="white"/>
<stop offset="1" stop-color="#FF5E5E" stop-opacity="0"/>
</radialGradient>
<radialGradient id="paint10_radial_91_1142" cx="0" cy="0" r="1" gradientUnits="userSpaceOnUse" gradientTransform="translate(385 30) rotate(90) scale(5)">
<stop offset="0.015625" stop-color="white"/>
<stop offset="1" stop-color="#FF5E5E" stop-opacity="0"/>
</radialGradient>
<radialGradient id="paint11_radial_91_1142" cx="0" cy="0" r="1" gradientUnits="userSpaceOnUse" gradientTransform="translate(461 -2) rotate(90) scale(5)">
<stop offset="0.015625" stop-color="white"/>
<stop offset="1" stop-color="#FF5E5E" stop-opacity="0"/>
</radialGradient>
<radialGradient id="paint12_radial_91_1142" cx="0" cy="0" r="1" gradientUnits="userSpaceOnUse" gradientTransform="translate(174 42) rotate(90) scale(5)">
<stop offset="0.015625" stop-color="white"/>
<stop offset="1" stop-color="#FF5E5E" stop-opacity="0"/>
</radialGradient>
<radialGradient id="paint13_radial_91_1142" cx="0" cy="0" r="1" gradientUnits="userSpaceOnUse" gradientTransform="translate(247 34) rotate(90) scale(5)">
<stop offset="0.015625" stop-color="white"/>
<stop offset="1" stop-color="#FF5E5E" stop-opacity="0"/>
</radialGradient>
<radialGradient id="paint14_radial_91_1142" cx="0" cy="0" r="1" gradientUnits="userSpaceOnUse" gradientTransform="translate(533.432 632.847) rotate(90) scale(632.847 533.432)">
<stop stop-color="#15202B"/>
<stop offset="1" stop-color="#070C11" stop-opacity="0"/>
</radialGradient>
<radialGradient id="paint15_radial_91_1142" cx="0" cy="0" r="1" gradientUnits="userSpaceOnUse" gradientTransform="translate(457.743 133.9) rotate(90) scale(6.6 6.6125)">
<stop offset="0.145833" stop-color="white"/>
<stop offset="1" stop-color="#FF5E5E" stop-opacity="0"/>
</radialGradient>
<radialGradient id="paint16_radial_91_1142" cx="0" cy="0" r="1" gradientUnits="userSpaceOnUse" gradientTransform="translate(65.4011 44.8) rotate(90) scale(6.6 6.6125)">
<stop offset="0.145833" stop-color="white"/>
<stop offset="1" stop-color="#FF5E5E" stop-opacity="0"/>
</radialGradient>
<radialGradient id="paint17_radial_91_1142" cx="0" cy="0" r="1" gradientUnits="userSpaceOnUse" gradientTransform="translate(82.4833 626.15) rotate(90) scale(561.55 824.358)">
<stop stop-color="#3391FF"/>
<stop offset="1" stop-color="#3391FF" stop-opacity="0"/>
</radialGradient>
<linearGradient id="paint18_linear_91_1142" x1="183.485" y1="84.9132" x2="190.363" y2="92.3619" gradientUnits="userSpaceOnUse">
<stop stop-color="white"/>
<stop offset="1" stop-color="#003199"/>
</linearGradient>
<clipPath id="clip0_91_1142">
<rect width="500" height="134" rx="16" fill="white"/>
</clipPath>
<clipPath id="clip1_91_1142">
<rect width="171" height="32" fill="white" transform="translate(164 77)"/>
</clipPath>
</defs>
</svg>
